Coordinates
version=1
nRows=4
nColumns=63
inDegrees=yes

Units are S.I. units (second, meters, Newtons, ...)
If the header above contains a line with 'inDegrees', this indicates whether rotational values are in degrees (yes) or radians (no).

endheader
time	pelvis_tilt	pelvis_list	pelvis_rotation	pelvis_tx	pelvis_ty	pelvis_tz	hip_flexion_r	hip_adduction_r	hip_rotation_r	knee_angle_r	knee_angle_r_beta	ankle_angle_r	subtalar_angle_r	mtp_angle_r	hip_flexion_l	hip_adduction_l	hip_rotation_l	knee_angle_l	knee_angle_l_beta	ankle_angle_l	subtalar_angle_l	mtp_angle_l	L5_S1_Flex_Ext	L5_S1_Lat_Bending	L5_S1_axial_rotation	L4_L5_Flex_Ext	L4_L5_Lat_Bending	L4_L5_axial_rotation	L3_L4_Flex_Ext	L3_L4_Lat_Bending	L3_L4_axial_rotation	L2_L3_Flex_Ext	L2_L3_Lat_Bending	L2_L3_axial_rotation	L1_L2_Flex_Ext	L1_L2_Lat_Bending	L1_L2_axial_rotation	L1_T12_Flex_Ext	L1_T12_Lat_Bending	L1_T12_axial_rotation	Abs_r3	Abs_r2	Abs_r1	Abs_t1	Abs_t2	neck_flexion	neck_bending	neck_rotation	arm_flex_r	arm_add_r	arm_rot_r	elbow_flex_r	pro_sup_r	wrist_flex_r	wrist_dev_r	arm_flex_l	arm_add_l	arm_rot_l	elbow_flex_l	pro_sup_l	wrist_flex_l	wrist_dev_l
      6.23728814	    -11.84928667	    -19.51414627	     70.66422548	      0.21259116	      0.88082483	      0.54679740	     37.77748695	     -3.83568050	     -4.35259739	     29.99979087	      0.52359513	     37.38208277	    -13.68567327	      0.00000000	     28.51278852	      0.26781125	    -17.15258217	     15.24557083	      0.26608541	     44.85715301	     14.01752643	      0.00000000	      0.21373378	     -0.20886120	     -1.46092191	      0.39692500	     -0.27778539	     -1.55222953	      0.35114323	     -0.50782512	     -1.55222953	      0.24427634	     -0.50782512	     -1.27830667	      0.19847319	     -0.42590976	     -1.18699905	      0.12212748	     -0.32352600	     -1.09569143	      1.52667902	     -2.36267965	     -8.12520939	      0.00000000	      0.00000000	     18.46814566	      7.82661527	      0.12172917	     16.39080430	     -4.26783402	     17.41433294	     90.70493304	     89.36974889	      7.22764215	     33.35717657	     -4.29316032	    -13.42321424	    -10.54028559	    113.59463962	     89.19942409	    -18.93007266	      4.66212778
      6.25423729	    -10.53912604	    -19.52182179	     72.81875078	      0.21055982	      0.88129516	      0.54438779	     37.51775083	     -3.17413408	     -3.29578829	     30.43837995	      0.53124995	     39.49662290	    -12.38876172	      0.00000000	     28.46634748	     -0.07268622	    -15.80592509	     15.81858361	      0.27608637	     45.40585475	     14.15589881	      0.00000000	      0.23021237	     -0.13650867	     -1.36296548	      0.42752738	     -0.18155653	     -1.44815083	      0.37821589	     -0.33190718	     -1.44815083	      0.26310971	     -0.33190718	     -1.19259480	      0.21377520	     -0.27836848	     -1.10740946	      0.13154335	     -0.21145193	     -1.02222411	      1.64438390	     -1.54421340	     -7.58040513	      0.00000000	      0.00000000	     18.61333427	      6.18510686	      3.34949313	     17.49283785	     -5.31885195	     18.29157933	     90.80135900	     89.36095965	      7.03853566	     33.32175302	     -3.19252792	    -13.11579238	     -9.32889888	    112.46877727	     89.09883521	    -17.84200830	      5.66746555
      6.27118644	     -8.95123432	    -19.57946935	     75.29587557	      0.20750765	      0.88184711	      0.54219378	     37.35687944	     -2.59422969	     -3.20009210	     30.91817562	      0.53962396	     41.80392093	     -9.53382054	      0.00000000	     28.55031473	     -0.50572078	    -13.79831361	     16.51287824	      0.28820409	     45.83809998	     13.79505010	      0.00000000	      0.24639297	     -0.02414645	     -1.32765836	      0.45757639	     -0.03211478	     -1.41063701	      0.40479902	     -0.05870968	     -1.41063701	      0.28160253	     -0.05870968	     -1.16170107	      0.22880052	     -0.04923944	     -1.07872242	      0.14078895	     -0.03740285	     -0.99574377	      1.75996038	     -0.27314948	     -7.38403753	      0.00000000	      0.00000000	     18.30855669	      4.39611630	      6.09625164	     18.33252714	     -6.34513093	     19.26404683	     90.79803579	     89.36050345	      5.12074843	     33.11432281	     -2.12968031	    -12.28787627	     -8.79357229	    111.53564363	     88.94591912	    -15.53751615	      9.35835034
      6.28813559	     -7.43361939	    -19.47370916	     77.43049571	      0.20496140	      0.88268316	      0.54016559	     37.15209008	     -1.99608241	     -3.36711824	     31.31759771	      0.54659519	     43.83694228	     -6.20659304	      0.00000000	     28.36251628	     -0.97111310	    -11.90611668	     16.96115102	      0.29602793	     46.04803990	     13.04131391	      0.00000000	      0.24524844	      0.07058115	     -1.21367599	      0.45545087	      0.09387292	     -1.28953074	      0.40291865	      0.17161100	     -1.28953074	      0.28029444	      0.17161100	     -1.06196649	      0.22773770	      0.14392907	     -0.98611174	      0.14013496	      0.10933020	     -0.91025699	      1.75178505	      0.79842804	     -6.75010176	      0.00000000	      0.00000000	     17.44298495	      2.85878973	      7.47916166	     18.55900691	     -6.92511765	     19.76570119	     90.78179077	     89.35261377	      1.82383102	     32.74235592	     -1.18195558	    -11.63029046	     -8.23309364	    110.60006925	     88.75155276	    -13.46629311	     13.42199453
